ply
format ascii 1.0
comment VCGLIB generated
element vertex 524
property float x
property float y
property float z
element face 1044
property list uchar int vertex_indices
end_header
0.123383 -0.6807469 0.7147534 
0.07319915 -0.5096564 0.7409286 
0.2378721 -0.6928349 0.728336 
0.04385741 -0.7513907 0.667506 
0.2214687 -0.7715766 0.6881193 
0.1339928 -0.4784167 0.7644777 
0.3581979 -0.4841188 0.7283636 
-0.0270021 -0.7252165 0.6275148 
0.1270649 -0.8435464 0.6338239 
0.005824768 -0.3469713 0.7551922 
0.0125963 -0.837561 0.671479 
-0.1475355 -0.4878899 0.5407135 
-0.04698293 -0.4970217 0.6940332 
0.3298782 -0.7388247 0.6809113 
-0.08675958 -0.3824189 0.7253241 
0.3415789 -0.3801464 0.7244916 
-0.108676 -0.611303 0.538166 
0.1743492 -0.9570085 0.6247234 
0.191007 -0.339584 0.7602706 
-0.07365306 -0.8193572 0.6897861 
-0.039377 -0.941401 0.70249 
0.3863543 -0.8744181 0.5897162 
0.484152 -0.706322 0.624691 
0.341099 -0.965165 0.581568 
0.4859897 -0.4486721 0.668408 
0.4775488 -0.5749311 0.6397102 
0.317073 -0.294981 0.738248 
-0.09240489 -0.7232953 0.5515167 
-0.15843 -0.690074 0.484635 
-0.142424 -0.903601 0.710563 
-0.2059217 -0.8570355 0.6523219 
0.26435 -0.957214 0.501535 
0.02524604 -0.9643642 0.5892975 
0.06674051 -0.2280425 0.7438638 
-0.0680087 -0.268492 0.711939 
0.2806704 -0.1981789 0.7053052 
-0.102572 -0.969646 0.637671 
-0.1925935 -0.3099225 0.5711269 
-0.2040481 -0.5247517 0.5384549 
0.4685111 -0.7760337 0.5674495 
0.483912 -0.864489 0.562503 
0.4449992 -0.9555789 0.5420041 
0.5415129 -0.6667919 0.5857054 
0.47932 -0.3449408 0.6727229 
0.550014 -0.524059 0.58195 
0.354382 -0.2343695 0.6958373 
-0.234124 -0.758199 0.508725 
-0.184987 -0.96114 0.66652 
-0.2749338 -0.5977094 0.5487876 
0.277534 -0.91106 0.382096 
0.02970251 -0.9095432 0.5090573 
-0.0891522 -0.936807 0.544423 
0.1453674 -0.1478224 0.6830637 
-0.0241233 -0.187709 0.674994 
-0.2427358 -0.9717287 0.515941 
-0.3154814 -0.4419881 0.5724167 
0.5820985 -0.8058037 0.4843339 
0.4455279 -0.967769 0.3864677 
0.650974 -0.670777 0.505369 
0.3937598 -0.9621941 0.4286272 
0.6110773 -0.3931872 0.5811707 
-0.3369083 -0.7184027 0.5231255 
-0.2750726 -0.8269138 0.5437639 
-0.2948024 -0.9620818 0.5635872 
0.1826979 -0.919334 0.310837 
0.345227 -0.968341 0.31895 
-0.1589827 -0.9222541 0.4419815 
0.08007783 -0.1225322 0.596141 
-0.117971 -0.2121088 0.6106523 
-0.2053479 -0.1897947 0.5828068 
0.2472724 -0.1067484 0.5920612 
-0.3369931 -0.2316592 0.5734673 
-0.4225357 -0.4536352 0.5659229 
0.6366572 -0.7932845 0.4273463 
0.6885508 -0.5659913 0.4951569 
0.515585 -0.1460885 0.6043227 
0.3889721 -0.1180097 0.6235783 
-0.398788 -0.701287 0.48421 
-0.409733 -0.807937 0.532801 
-0.2852083 -0.8804872 0.5606028 
-0.3839358 -0.5640683 0.5200314 
-0.465048 -0.531519 0.50424 
0.7260495 -0.6314539 0.4131804 
0.180122 -0.929819 0.216565 
0.4221514 -0.9612367 0.1650013 
0.2580172 -0.9708113 0.273301 
0.2335506 0.06303652 0.5416915 
-0.1389635 -0.1080044 0.5698547 
-0.431096 -0.297924 0.605432 
-0.525445 -0.465426 0.553523 
0.5305417 -0.9407337 0.3649935 
0.5953413 -0.8888776 0.3930167 
0.723704 -0.823771 0.418939 
0.774313 -0.739789 0.439134 
0.880491 -0.6212379 0.402714 
0.2513125 -0.9749632 0.06478766 
0.5912299 -0.1735635 0.5628605 
-0.3121757 -0.1278656 0.5543751 
0.371835 0.03468253 0.5164653 
-0.488663 -0.866847 0.610986 
-0.444609 -0.961497 0.606863 
-0.5084023 -0.5988138 0.4188743 
-0.3299225 -0.9747756 0.4006014 
0.775735 -0.481074 0.351849 
0.836964 -0.551959 0.364328 
-0.1077038 -0.9324955 0.2838491 
0.1704176 -0.9148657 0.01899886 
0.3200292 -0.9751114 -0.0003712252 
-0.231945 -0.975842 0.322542 
0.7492968 -0.4049309 0.4125185 
0.140149 0.005958495 0.5692214 
-0.1498351 -0.04401622 0.5380049 
-0.513878 -0.80117 0.530156 
-0.5343504 -0.1683198 0.5826892 
-0.480356 -0.3617453 0.5961843 
-0.5683145 -0.4905322 0.5263636 
0.5674647 -0.9651503 0.2485603 
0.6896234 -0.2371149 0.5007194 
0.5855332 0.02430638 0.455256 
0.4949697 -0.02348487 0.5215548 
0.4115564 0.1054373 0.4796772 
-0.4587388 -0.7580189 0.4143994 
-0.596835 -0.891901 0.554116 
-0.560678 -0.958254 0.597195 
0.938577 -0.533915 0.324013 
0.09325388 -0.9211611 0.09778061 
-0.237717 -0.967256 0.215364 
0.5817692 -0.9689451 0.1252349 
-0.4900261 -0.9822987 0.2927623 
0.7676809 -0.2409483 0.3598515 
0.09543498 0.1335846 0.4945621 
-0.3927064 -0.05133972 0.5406513 
-0.4570158 -0.6668337 0.3773955 
-0.663851 -0.5292377 0.4441951 
-0.6190671 -0.200588 0.5829235 
-0.652234 -0.3152039 0.5785424 
-0.6997346 -0.4413052 0.5028956 
0.7841721 -0.8776311 0.3049141 
0.8553432 -0.7991524 0.3541585 
0.9036373 -0.6996358 0.3793634 
0.998477 -0.6242206 0.253648 
-0.09048311 -0.9287257 0.1369714 
0.256292 -0.914639 -0.0378116 
0.5091052 0.1268373 0.419724 
-0.43814 -0.801949 0.272324 
-0.5050845 -0.7957095 0.4023957 
-0.598913 -0.8338795 0.4453605 
-0.5336856 -0.654682 0.287762 
0.996717 -0.564942 0.22514 
-0.255775 -0.986432 0.110362 
-0.338197 -0.964428 0.172782 
0.634935 -0.9421797 0.05020473 
0.4169073 -0.9727626 -0.04161036 
0.331287 -0.951658 -0.110223 
0.3212496 0.2035837 0.4238903 
0.06585851 0.1770865 0.4339878 
-0.102918 0.113389 0.421943 
-0.2079274 0.08439105 0.4316091 
-0.4115882 0.05018483 0.4614042 
0.3693143 0.2409015 0.3446431 
-0.438191 -0.721384 0.204497 
-0.5771809 -0.9739411 0.4925863 
-0.583239 -0.046457 0.527989 
-0.7125355 -0.260936 0.5582871 
-0.8098391 -0.3371025 0.4619597 
-0.7537146 -0.4884608 0.3995737 
0.762448 -0.9120963 0.1678891 
0.9555544 -0.757661 0.2473157 
0.8430642 -0.4754019 0.246508 
0.2418531 -0.9167946 -0.1454509 
0.7097507 -0.04617324 0.3409172 
-0.4963602 0.04124242 0.4770754 
0.5052285 0.1964689 0.2749626 
-0.503352 -0.866303 0.248173 
-0.561618 -0.896905 0.310744 
-0.648502 -0.9372144 0.4187693 
-0.6595478 -0.6307248 0.2427439 
-0.539265 -0.66913 0.156614 
-0.58232 -0.973088 0.282548 
0.8089938 -0.4183708 0.2881291 
0.787771 -0.2071193 0.2692746 
0.9505962 -0.4758318 0.1951815 
0.987448 -0.582485 0.11339 
-0.2118408 -0.9237886 -0.004854636 
-0.3626026 -0.9808239 0.06197125 
-0.3063996 -0.9692575 -0.04998013 
-0.5729499 -0.9886746 0.04184136 
0.5061608 -0.9426994 -0.01595929 
0.647447 -0.890491 -0.0212485 
0.416578 -0.971453 -0.177789 
0.1620625 0.249067 0.3466869 
0.004527309 0.1997716 0.3505392 
-0.1504811 0.1778146 0.2925391 
-0.2559742 0.1520915 0.3792275 
-0.3412156 0.1820506 0.3150432 
-0.4412337 0.1894619 0.4574864 
-0.504279 -0.728319 0.10941 
-0.678251 -0.0195806 0.503647 
-0.734336 -0.11996 0.505807 
-0.601914 0.0411875 0.511282 
0.6075289 0.09842658 0.3492345 
0.4882738 0.2122784 0.154422 
0.3620343 0.2676809 0.1524127 
-0.583954 -0.902368 0.231083 
-0.5313487 -0.7886291 0.09804893 
-0.7639143 -0.5543961 0.1952327 
-0.640443 -0.636017 0.115956 
-0.541056 -0.654732 0.0538313 
-0.6750212 -0.9747171 0.1472687 
0.8099743 -0.4198238 0.1056318 
0.7957919 -0.2020811 0.08740727 
0.917994 -0.525243 0.0515327 
0.9185925 -0.6518143 -0.008125964 
-0.2334957 -0.9227746 -0.1445528 
0.2974013 -0.9816584 -0.2151739 
0.5008551 -0.8926855 -0.1195414 
0.5124177 -0.8299165 -0.2275789 
0.3593955 -0.9293264 -0.2802073 
0.74567 -0.06975114 0.1939388 
0.6134536 0.1190725 0.1341951 
-0.1084642 0.2017365 0.225195 
-0.4504829 0.3078716 0.4144173 
-0.509738 -0.751469 0.00110279 
-0.646104 0.0366989 0.603535 
-0.773663 -0.0236664 0.494484 
-0.5572078 0.1153216 0.5448189 
-0.8386318 -0.2151033 0.4389674 
-0.56181 0.200359 0.554273 
-0.9201293 -0.2189779 0.3206317 
-0.8374261 -0.398551 0.3876093 
0.8296884 -0.8404015 0.02602394 
0.9544623 -0.7534842 0.09608798 
0.832163 -0.494574 0.08827119 
0.6830406 0.02834564 0.2470985 
-0.6350434 -0.8303744 0.09520036 
-0.572775 -0.827088 0.00471088 
-0.7121618 -0.5785054 0.05742757 
-0.489192 -0.678514 -0.0480324 
-0.739968 0.00401352 0.595619 
0.7897751 -0.4526497 0.01436921 
-0.05308981 -0.925469 -0.2056783 
-0.155715 -0.94561 -0.224577 
0.0799706 -0.926874 -0.316656 
-0.4038795 -0.9832924 -0.1487813 
-0.3019948 -0.9818363 -0.204235 
0.597327 -0.76219 -0.178302 
0.6416343 -0.7536262 -0.08761227 
0.7603231 -0.761945 -0.06921886 
0.4123533 -0.8278596 -0.2924548 
0.8323568 -0.7774571 -0.03345451 
0.7491016 -0.07931134 0.06566116 
0.09011345 0.2579648 0.2425394 
0.2592446 0.2788645 0.2054904 
-0.2510557 0.2118383 0.2222281 
-0.474451 0.3665621 0.383862 
-0.43755 -0.760762 -0.0827606 
-0.642641 0.120801 0.685275 
-0.8047376 -0.03029553 0.4333715 
-0.9218706 0.03634672 0.5713486 
-0.9152983 -0.142014 0.3217251 
-0.623294 0.206292 0.639281 
-0.9196096 -0.3291891 0.1960483 
0.1719387 -0.853214 -0.3193033 
-0.607401 0.3435972 0.5169116 
0.3985458 0.2401856 0.03952432 
-0.6920506 -0.8830375 0.1000712 
-0.657777 -0.88131 -0.00112895 
-0.8433415 -0.4464915 0.07294216 
-0.6374928 -0.6106633 0.008352403 
-0.710159 -0.967844 0.0302809 
-0.707241 0.05729937 0.6777902 
-0.880371 0.00672854 0.489926 
0.71851 -0.442357 -0.1119712 
0.773721 -0.286677 -0.05429348 
0.8433933 -0.6229334 -0.0335333 
-0.08057512 -0.9878708 -0.2843508 
-0.172811 -0.987769 -0.323059 
-0.359783 -0.9776529 -0.2855846 
0.6262366 -0.6640495 -0.1899242 
0.7398131 -0.6256914 -0.03490122 
0.483756 -0.727248 -0.323047 
0.3196606 -0.756268 -0.3554715 
0.6205865 0.08658884 0.01462634 
0.2307284 0.2682784 0.06252728 
-0.1510998 0.1956749 0.07835671 
-0.34406 0.2515684 0.1449246 
-0.3852635 0.2997378 0.2285007 
-0.5635974 0.5196072 0.48153 
-0.4495069 -0.8304324 -0.08860592 
-0.5839248 -0.8923073 -0.07596685 
-0.5389864 -0.6049783 -0.0672859 
-0.311603 -0.775517 -0.124861 
-0.643796 -0.97271 -0.07262064 
-0.73497 0.116112 0.705337 
-0.708264 0.19869 0.700007 
-0.9611927 0.09138273 0.3643155 
-0.89115 -0.02343058 0.2674554 
-0.8594705 0.09889956 0.6504897 
-0.692269 0.284568 0.657968 
-0.936605 -0.1496047 0.1858253 
0.71907 -0.5728554 -0.1197603 
-0.26534 -0.981458 -0.362401 
-0.386808 -0.910398 -0.151656 
-0.4353633 0.430676 0.1955872 
-0.6337375 0.4522769 0.5439097 
0.3193254 0.2206199 -0.04817992 
-0.764715 -0.490489 -0.0419264 
-0.6487524 -0.474394 -0.1623486 
-0.3953583 -0.6674322 -0.1254593 
-0.4593699 -0.5857102 -0.1193138 
-0.96452 0.0702384 0.45925 
0.706425 -0.355859 -0.170508 
0.710103 -0.2388061 -0.1347026 
0.672254 -0.07236656 -0.1115259 
0.6419144 -0.5488901 -0.2077806 
0.5760953 0.07562844 -0.07438865 
-0.0990063 -0.9317734 -0.3559188 
-0.06331831 -0.8300092 -0.3404038 
-0.209088 -0.916465 -0.374273 
-0.3300577 -0.9006118 -0.307274 
0.4881377 -0.6466572 -0.3233339 
0.1935453 -0.7799333 -0.3734092 
0.05545896 0.2384284 0.04909546 
-0.312782 0.235865 0.0674354 
-0.394779 0.292911 0.0843884 
-0.42169 0.400664 0.0897665 
-0.445195 0.522608 0.198677 
-0.501216 0.5506449 0.3878112 
-0.333112 -0.836613 -0.184746 
-0.525267 -0.480649 -0.200705 
-0.2076181 -0.7490621 -0.1181717 
-0.79508 0.257012 0.702693 
-0.982289 0.157272 0.520952 
-0.9363034 0.1348605 0.6137909 
-0.8264013 -0.3945886 -0.04757332 
0.04170763 -0.7693928 -0.3898378 
-0.377829 0.489553 0.120963 
-0.7246251 0.5280081 0.5004757 
0.1339653 0.209212 -0.06761265 
-0.6730402 -0.3978546 -0.1967495 
-0.353686 -0.526588 -0.194376 
-0.2029174 -0.6898087 -0.1318071 
-0.753266 0.4159172 0.6216974 
0.631085 -0.388809 -0.230324 
-0.201531 -0.83758 -0.340692 
-0.03450547 -0.7051498 -0.3996497 
-0.281464 -0.8248 -0.268514 
0.2430744 -0.6036632 -0.4131514 
-0.001519956 0.180769 -0.04191986 
-0.1308218 0.1828017 0.02386595 
-0.276925 0.212468 -0.0211738 
-0.389916 0.235857 -0.00172828 
-0.446616 0.343713 0.018942 
-0.3408407 0.47187 0.02945106 
-0.369806 0.583512 0.120531 
-0.533711 0.583596 0.223137 
-0.6723493 0.5748214 0.4052163 
-0.485133 -0.3726391 -0.2548292 
-0.871125 0.299534 0.643144 
-0.99362 0.113442 0.259385 
-1.0003 0.1927001 0.2851776 
-0.8824003 0.4050859 0.5575768 
-0.8730446 -0.105704 0.00643953 
-0.8403481 0.4773759 0.5177556 
-0.8863738 -0.2738318 -0.01145624 
-0.122373 -0.753175 -0.315386 
-0.441118 0.460303 0.000389771 
-0.29608 0.547007 0.0803833 
-0.458676 0.607953 0.145304 
0.4312124 0.10227 -0.1509109 
0.3026189 0.1434533 -0.153571 
-0.1665558 -0.7584655 -0.2244501 
-0.630697 -0.2952927 -0.2183788 
-0.2587767 -0.5508709 -0.178704 
-0.400709 -0.3792742 -0.2437616 
-0.9734762 0.2003992 0.4138477 
0.5583548 -0.4563052 -0.2898178 
0.6421187 -0.2826809 -0.2198286 
0.5332724 -0.1654606 -0.2511293 
0.4397057 -0.5395705 -0.356487 
0.002881849 -0.5868199 -0.4597798 
0.04315139 0.1204517 -0.1474954 
-0.180344 0.1363649 -0.09576321 
-0.5472025 0.3655493 -0.05736325 
-0.301832 0.638849 0.0532371 
-0.539577 0.599315 0.11682 
-0.7539384 -0.3160547 -0.1656125 
-0.9223058 0.2840727 0.5805133 
-0.9712068 0.1272938 0.1269024 
-0.9582992 0.0476104 0.1518419 
-0.9225962 0.4065187 0.4514617 
-0.8239249 -0.2096931 -0.09134107 
-0.818614 0.55237 0.395647 
0.548538 -0.05352816 -0.1785436 
-0.1152979 -0.6165116 -0.3874075 
-0.4493513 0.2083474 -0.05669285 
-0.547154 0.488456 -0.00358578 
-0.208413 0.599805 0.0493931 
-0.454179 0.561552 -0.0331052 
-0.8052267 0.5859666 0.2726082 
0.281928 0.0259071 -0.240191 
0.1642585 0.05994135 -0.2091771 
-0.008712774 0.05724443 -0.2027252 
-0.7063137 -0.2262775 -0.1846177 
-0.2447564 -0.4066461 -0.2421884 
-0.2072008 -0.5298987 -0.2527776 
-0.1479586 -0.6463253 -0.3184897 
-0.3264806 -0.25215 -0.2714495 
-0.927718 0.354122 0.353214 
0.2915904 -0.4310856 -0.4234681 
0.03033605 -0.4648345 -0.481034 
-0.07808305 -0.4664704 -0.4781181 
-0.3622842 0.1743281 -0.1193717 
-0.599061 0.416669 -0.0799992 
-0.1454628 0.5813146 -0.08126891 
-0.3319221 0.7089217 0.07910212 
-0.612105 0.5952957 0.3082227 
-0.519769 0.598655 0.0246927 
-0.584202 0.566982 0.0567267 
-0.5117752 -0.207656 -0.2583256 
-0.9543303 0.3526549 0.2515927 
-0.8680239 -0.007766692 0.05611722 
-0.7737164 -0.1036557 -0.1131993 
-0.9368245 0.5359623 0.2753553 
0.3712702 -0.03173554 -0.2327727 
-0.1825842 -0.439779 -0.3955861 
-0.51098 0.121081 -0.125314 
-0.0609701 0.6342072 -0.0313286 
-0.6679241 0.581292 0.0859504 
0.2344963 -0.08276896 -0.2649272 
0.111679 -0.0165363 -0.269745 
-0.4353306 -0.07703496 -0.2489555 
-0.213792 -0.3095292 -0.308098 
-0.2898772 -0.1726924 -0.2690012 
-0.9709082 0.4596468 0.2633583 
0.3910503 -0.2873456 -0.3715382 
0.4587368 -0.2344493 -0.3037952 
0.1171188 -0.3495258 -0.4749984 
-0.1543298 -0.3525481 -0.4366482 
-0.252396 0.0530685 -0.1946264 
-0.5150447 0.02908991 -0.1935559 
-0.604645 0.1757356 -0.1005512 
-0.681124 0.352131 -0.0814797 
-0.6295297 0.5644006 -0.01973325 
-0.2905496 0.6884468 -0.144646 
-0.2111393 0.6234855 -0.1437034 
-0.3665454 0.7404183 -0.07629094 
-0.1368264 0.7192981 -0.08327868 
-0.222778 0.782654 0.00304407 
-0.3594555 0.7713326 0.004397317 
-0.9398677 0.2868526 0.09054175 
-0.7567366 0.03189247 -0.05912767 
-0.671773 0.07205841 -0.09708143 
-0.679583 0.42073 -0.138189 
-0.5874296 0.5191403 -0.09103635 
-0.774903 0.5656548 0.05134865 
-0.711779 0.618531 -0.0339719 
0.2753452 -0.1417688 -0.2843521 
0.13409 -0.113792 -0.283805 
-0.03068402 -0.08192104 -0.2808167 
-0.1430448 -0.05570545 -0.270903 
-0.597957 -0.1092251 -0.2059206 
0.1770063 -0.2475233 -0.4351577 
0.0008991049 -0.2921093 -0.4761128 
-0.110228 -0.306302 -0.455865 
-0.205327 -0.01592593 -0.2329347 
-0.750032 0.444511 -0.0735254 
-0.0336673 0.662684 -0.171931 
-0.155421 0.809955 -0.0803929 
-0.237053 0.851478 -0.0459925 
-0.9070756 0.2532442 0.03077932 
-0.8759312 0.1600614 -0.02603495 
-0.8913565 0.4111221 0.1065598 
-0.750145 0.20953 -0.08581941 
-0.9067672 0.4936756 0.1279022 
0.2885359 -0.1985114 -0.3753573 
-0.78419 0.35024 -0.0502028 
-0.70678 0.672745 -0.128928 
0.0494205 0.683964 -0.144996 
-0.784247 0.528597 -0.0137032 
0.154454 -0.16001 -0.356714 
-0.02038188 -0.1773644 -0.3494535 
-0.115794 -0.171608 -0.295981 
-0.11953 -0.228514 -0.3849 
0.004635719 -0.2135368 -0.4339937 
-0.819988 0.430039 -0.00129756 
-0.5937683 0.5035925 -0.2820314 
-0.03898052 0.7764073 -0.2533516 
0.0765826 0.72329 -0.24833 
-0.00385348 0.778273 -0.187079 
-0.1247016 0.92112 -0.09742653 
-0.7720946 0.5778087 -0.1140884 
-0.6192322 0.7039537 -0.2859847 
-0.780929 0.645907 -0.201672 
-0.7427029 0.5212807 -0.3445626 
-0.6747603 0.4876392 -0.4066046 
-0.739258 0.592296 -0.285114 
-0.1075455 0.9056448 -0.207931 
-0.04303199 0.8819687 -0.2780883 
-0.02732388 0.8811985 -0.2017909 
-0.5720908 0.6290056 -0.3327854 
-0.7961781 0.7109354 -0.3689099 
0.102153 0.810104 -0.333018 
-0.7324767 0.6470586 -0.4077498 
-0.715269 0.568966 -0.45746 
-0.601916 0.5969786 -0.5225819 
0.0688475 0.898887 -0.360034 
0.05893977 0.8575062 -0.2636261 
-0.00184027 0.9892752 -0.2580992 
-0.7091803 0.7605468 -0.313355 
-0.633761 0.771801 -0.478279 
-0.6790415 0.5204443 -0.5520428 
-0.7994253 0.805639 -0.5458024 
-0.7175312 0.8614903 -0.56816 
-0.5851664 0.7346493 -0.5853328 
-0.6806411 0.6517708 -0.6058671 
-0.633094 0.627657 -0.705883 
-0.5817913 0.7091425 -0.7496737 
-0.6327476 0.8529853 -0.6408006 
-0.574406 0.808697 -0.766479 
-0.707863 0.7782713 -0.617601 
-0.6609554 0.8279319 -0.7168067 
-0.736892 0.895432 -0.673306 
-0.629134 0.902617 -0.743928 
3 0 2 1 
3 3 0 1 
3 4 2 0 
3 5 1 2 
3 12 3 1 
3 4 0 3 
3 12 7 3 
3 4 13 2 
3 2 13 6 
3 4 3 8 
3 5 2 6 
3 1 5 9 
3 10 3 7 
3 12 11 7 
3 21 4 8 
3 8 3 10 
3 18 9 5 
3 1 9 14 
3 18 5 15 
3 19 10 7 
3 16 7 11 
3 1 14 12 
3 21 13 4 
3 13 25 6 
3 21 8 17 
3 8 10 17 
3 6 15 5 
3 19 7 27 
3 27 7 16 
3 19 20 10 
3 13 22 25 
3 23 21 17 
3 20 17 10 
3 18 15 26 
3 27 16 28 
3 29 20 19 
3 14 11 12 
3 11 38 16 
3 39 22 13 
3 39 13 21 
3 25 22 42 
3 23 17 31 
3 20 32 17 
3 6 25 24 
3 6 24 15 
3 9 18 33 
3 14 9 34 
3 18 26 35 
3 19 27 30 
3 28 16 38 
3 29 36 20 
3 29 19 30 
3 14 37 11 
3 40 39 21 
3 23 41 21 
3 31 17 32 
3 23 31 59 
3 36 32 20 
3 43 15 24 
3 44 25 42 
3 15 45 26 
3 18 35 33 
3 9 33 34 
3 14 34 37 
3 35 26 45 
3 27 28 46 
3 30 27 62 
3 28 38 48 
3 29 47 36 
3 42 22 39 
3 40 21 41 
3 23 59 41 
3 31 32 50 
3 31 49 59 
3 36 51 32 
3 44 24 25 
3 43 45 15 
3 74 44 42 
3 35 52 33 
3 53 34 33 
3 37 34 68 
3 28 48 46 
3 27 46 62 
3 29 30 47 
3 36 47 54 
3 38 11 55 
3 38 55 48 
3 40 56 39 
3 42 39 56 
3 59 57 41 
3 58 74 42 
3 31 50 49 
3 32 51 50 
3 36 54 51 
3 43 24 60 
3 60 24 44 
3 53 33 52 
3 53 68 34 
3 35 45 76 
3 48 61 46 
3 30 62 79 
3 30 63 47 
3 63 54 47 
3 55 11 37 
3 80 48 55 
3 40 41 56 
3 58 42 56 
3 64 49 50 
3 65 59 49 
3 66 50 51 
3 51 54 66 
3 60 44 74 
3 43 76 45 
3 70 52 35 
3 53 52 67 
3 37 68 69 
3 35 76 70 
3 61 62 46 
3 30 79 63 
3 80 61 48 
3 55 37 71 
3 80 55 72 
3 56 41 91 
3 58 56 73 
3 41 57 90 
3 58 82 74 
3 66 64 50 
3 85 49 64 
3 57 59 65 
3 85 65 49 
3 43 75 76 
3 70 67 52 
3 53 67 68 
3 78 62 61 
3 71 37 69 
3 72 55 71 
3 81 80 72 
3 41 90 91 
3 56 91 73 
3 58 73 82 
3 83 85 64 
3 84 57 65 
3 43 60 75 
3 70 110 67 
3 67 87 68 
3 87 69 68 
3 70 76 98 
3 77 78 61 
3 77 61 80 
3 79 62 78 
3 102 54 63 
3 72 71 88 
3 81 72 89 
3 73 93 82 
3 116 90 57 
3 82 109 74 
3 64 66 105 
3 95 85 83 
3 116 57 84 
3 85 84 65 
3 117 60 74 
3 75 60 96 
3 117 74 109 
3 75 119 76 
3 86 110 70 
3 67 110 87 
3 86 70 98 
3 87 97 69 
3 77 121 78 
3 77 80 132 
3 79 78 99 
3 63 79 100 
3 81 101 80 
3 71 69 97 
3 72 88 114 
3 72 114 89 
3 81 89 115 
3 73 91 92 
3 92 93 73 
3 93 94 82 
3 103 109 82 
3 104 82 94 
3 64 125 83 
3 95 83 106 
3 116 84 127 
3 95 107 85 
3 54 108 66 
3 96 60 117 
3 96 119 75 
3 76 119 98 
3 77 132 121 
3 112 78 121 
3 80 101 132 
3 99 78 112 
3 79 99 100 
3 63 100 102 
3 81 115 101 
3 88 71 113 
3 71 97 131 
3 89 114 135 
3 137 91 90 
3 137 92 91 
3 92 138 93 
3 139 94 93 
3 104 103 82 
3 125 106 83 
3 64 105 125 
3 105 66 108 
3 107 84 85 
3 54 102 108 
3 96 118 119 
3 111 87 110 
3 98 120 86 
3 111 97 87 
3 145 112 121 
3 99 112 122 
3 100 99 123 
3 100 161 102 
3 115 133 101 
3 113 71 131 
3 114 88 113 
3 89 135 115 
3 116 137 90 
3 137 138 92 
3 138 139 93 
3 103 179 109 
3 104 168 103 
3 104 94 124 
3 125 105 141 
3 126 105 108 
3 107 152 84 
3 102 161 128 
3 96 117 118 
3 109 129 117 
3 120 98 119 
3 130 110 86 
3 111 110 130 
3 120 154 86 
3 111 157 97 
3 145 146 112 
3 122 112 146 
3 99 122 123 
3 100 123 161 
3 114 113 134 
3 115 135 136 
3 133 115 136 
3 116 166 137 
3 103 168 179 
3 109 179 129 
3 104 124 168 
3 94 140 124 
3 106 142 95 
3 141 105 126 
3 126 108 102 
3 127 84 152 
3 116 127 166 
3 107 95 142 
3 120 119 143 
3 130 86 154 
3 131 97 157 
3 154 120 143 
3 144 121 132 
3 133 147 101 
3 132 101 147 
3 175 122 146 
3 161 123 122 
3 114 134 135 
3 94 139 140 
3 179 180 129 
3 124 181 168 
3 148 124 140 
3 141 126 149 
3 150 126 102 
3 127 152 187 
3 166 127 151 
3 107 142 153 
3 118 143 119 
3 156 111 130 
3 131 157 193 
3 154 143 159 
3 144 145 121 
3 144 132 160 
3 132 147 160 
3 161 122 175 
3 162 113 131 
3 134 163 135 
3 131 158 171 
3 136 135 163 
3 136 165 133 
3 167 138 137 
3 139 138 167 
3 139 167 140 
3 148 181 124 
3 106 169 142 
3 150 149 126 
3 141 149 183 
3 150 102 128 
3 127 187 151 
3 152 107 153 
3 169 153 142 
3 170 117 129 
3 118 117 170 
3 118 200 143 
3 170 129 180 
3 154 155 130 
3 155 156 130 
3 157 111 156 
3 131 193 158 
3 159 143 172 
3 144 173 145 
3 144 160 204 
3 146 145 174 
3 147 133 176 
3 177 160 147 
3 161 178 128 
3 162 134 113 
3 162 131 171 
3 164 136 163 
3 136 164 165 
3 167 137 166 
3 179 168 209 
3 148 140 182 
3 150 184 149 
3 183 149 185 
3 150 128 186 
3 152 215 187 
3 151 230 166 
3 152 153 189 
3 169 214 153 
3 200 118 170 
3 172 143 200 
3 154 190 155 
3 155 191 156 
3 157 156 192 
3 193 194 158 
3 171 158 195 
3 144 204 173 
3 174 145 173 
3 196 204 160 
3 146 174 175 
3 176 133 165 
3 177 147 176 
3 196 160 177 
3 161 175 178 
3 162 197 134 
3 198 163 134 
3 162 171 199 
3 164 229 165 
3 167 166 231 
3 231 140 167 
3 209 168 232 
3 148 182 181 
3 181 232 168 
3 182 140 231 
3 141 183 125 
3 106 125 213 
3 106 213 169 
3 150 186 184 
3 149 184 185 
3 188 151 187 
3 188 230 151 
3 152 189 215 
3 153 214 189 
3 200 170 233 
3 170 180 218 
3 191 155 190 
3 190 154 159 
3 156 191 192 
3 157 192 193 
3 194 195 158 
3 159 172 202 
3 234 173 204 
3 203 174 173 
3 174 178 175 
3 176 165 205 
3 177 176 206 
3 196 177 207 
3 128 178 208 
3 162 199 197 
3 197 198 134 
3 198 226 163 
3 225 199 171 
3 163 226 164 
3 171 195 225 
3 165 229 205 
3 231 166 230 
3 179 210 180 
3 239 209 232 
3 182 211 181 
3 181 211 232 
3 182 231 212 
3 213 125 183 
3 169 213 240 
3 188 187 246 
3 247 230 188 
3 215 189 216 
3 217 189 214 
3 233 170 218 
3 172 200 219 
3 251 191 190 
3 190 159 252 
3 220 192 191 
3 194 221 195 
3 201 202 172 
3 201 172 219 
3 252 159 202 
3 203 173 234 
3 203 178 174 
3 204 196 222 
3 176 205 206 
3 177 206 207 
3 196 207 222 
3 203 208 178 
3 128 208 186 
3 223 197 199 
3 224 198 197 
3 198 257 226 
3 227 225 195 
3 229 164 228 
3 179 209 210 
3 218 180 210 
3 182 212 211 
3 214 169 240 
3 183 185 213 
3 187 215 246 
3 247 188 246 
3 247 249 230 
3 217 216 189 
3 200 233 219 
3 220 191 251 
3 190 252 251 
3 193 192 194 
3 265 203 234 
3 204 222 235 
3 236 206 205 
3 268 207 206 
3 237 222 207 
3 265 208 203 
3 238 197 223 
3 223 199 225 
3 224 257 198 
3 224 197 238 
3 228 164 226 
3 227 195 221 
3 273 210 209 
3 218 210 250 
3 211 212 274 
3 211 274 232 
3 275 214 240 
3 214 242 217 
3 184 243 185 
3 213 185 244 
3 215 245 246 
3 217 248 216 
3 218 250 233 
3 220 253 192 
3 192 253 194 
3 286 221 194 
3 204 235 234 
3 235 222 288 
3 268 206 236 
3 268 290 207 
3 237 255 222 
3 237 207 290 
3 238 223 270 
3 223 225 256 
3 258 224 238 
3 259 226 257 
3 227 260 225 
3 263 227 221 
3 229 228 261 
3 229 261 205 
3 273 209 239 
3 239 232 279 
3 279 232 274 
3 249 212 231 
3 240 213 241 
3 275 242 214 
3 213 244 241 
3 242 262 217 
3 184 186 243 
3 185 243 244 
3 215 216 245 
3 230 249 231 
3 262 248 217 
3 250 219 233 
3 286 194 253 
3 221 286 254 
3 221 254 263 
3 264 202 201 
3 201 219 282 
3 252 202 283 
3 235 266 234 
3 288 222 255 
3 289 235 288 
3 236 205 267 
3 237 308 255 
3 237 290 309 
3 269 186 208 
3 223 256 270 
3 225 260 256 
3 224 271 257 
3 258 271 224 
3 258 238 270 
3 259 228 226 
3 263 260 227 
3 205 261 267 
3 210 313 250 
3 239 279 300 
3 249 274 212 
3 275 240 241 
3 275 316 242 
3 276 241 244 
3 242 317 262 
3 243 277 244 
3 216 278 245 
3 278 246 245 
3 247 246 279 
3 216 248 280 
3 249 247 274 
3 281 248 262 
3 282 219 250 
3 220 251 322 
3 251 252 283 
3 220 284 253 
3 286 253 285 
3 286 303 254 
3 287 263 254 
3 264 201 282 
3 283 202 264 
3 266 265 234 
3 289 266 235 
3 237 309 308 
3 255 308 291 
3 269 208 265 
3 269 292 186 
3 293 270 256 
3 294 256 260 
3 271 295 257 
3 259 257 296 
3 258 270 297 
3 263 298 260 
3 228 299 261 
3 239 300 272 
3 272 273 239 
3 210 273 313 
3 282 250 313 
3 275 241 276 
3 316 317 242 
3 276 244 301 
3 262 317 335 
3 186 292 243 
3 243 302 277 
3 244 277 301 
3 216 280 278 
3 278 300 246 
3 246 300 279 
3 247 279 274 
3 280 248 281 
3 281 262 321 
3 321 262 335 
3 322 251 283 
3 220 322 284 
3 253 284 285 
3 327 254 303 
3 327 287 254 
3 304 263 287 
3 264 282 315 
3 283 264 305 
3 269 265 266 
3 289 292 266 
3 288 255 291 
3 306 236 267 
3 307 268 236 
3 268 307 290 
3 341 291 308 
3 269 266 292 
3 294 293 256 
3 270 293 297 
3 298 294 260 
3 310 295 271 
3 295 296 257 
3 258 310 271 
3 228 259 299 
3 263 304 298 
3 311 273 272 
3 313 273 312 
3 282 313 315 
3 275 276 316 
3 276 301 318 
3 243 292 289 
3 243 289 302 
3 277 302 319 
3 301 277 319 
3 320 278 280 
3 278 314 300 
3 280 281 320 
3 349 284 322 
3 324 286 285 
3 303 286 325 
3 305 264 315 
3 283 305 338 
3 283 338 322 
3 302 289 288 
3 288 291 328 
3 306 307 236 
3 307 329 290 
3 330 291 341 
3 290 329 309 
3 294 297 293 
3 298 331 294 
3 258 297 333 
3 258 332 310 
3 298 304 342 
3 261 364 267 
3 306 267 334 
3 300 314 272 
3 311 312 273 
3 276 318 316 
3 301 319 318 
3 302 328 319 
3 281 347 320 
3 281 321 347 
3 285 284 323 
3 324 285 323 
3 324 325 286 
3 303 325 336 
3 303 336 326 
3 326 327 303 
3 287 337 304 
3 305 315 369 
3 302 288 328 
3 330 328 291 
3 306 334 307 
3 307 339 329 
3 308 373 341 
3 340 308 309 
3 329 374 309 
3 294 331 297 
3 298 342 331 
3 295 310 375 
3 296 299 259 
3 258 333 332 
3 310 332 375 
3 331 333 297 
3 261 299 364 
3 342 304 337 
3 267 364 334 
3 311 272 343 
3 311 377 312 
3 316 318 344 
3 316 344 317 
3 318 319 344 
3 345 335 317 
3 346 319 328 
3 278 320 376 
3 380 321 335 
3 349 322 348 
3 284 350 323 
3 351 324 323 
3 352 325 324 
3 353 336 325 
3 326 336 354 
3 355 327 326 
3 287 327 356 
3 287 356 337 
3 305 369 370 
3 305 370 338 
3 322 338 348 
3 346 328 330 
3 307 334 339 
3 357 329 339 
3 340 373 308 
3 340 309 374 
3 371 330 341 
3 357 374 329 
3 342 358 331 
3 295 375 360 
3 296 295 389 
3 296 421 299 
3 387 332 333 
3 332 390 375 
3 331 358 333 
3 299 362 364 
3 272 314 343 
3 311 343 377 
3 378 312 377 
3 378 313 312 
3 315 313 393 
3 315 393 369 
3 317 344 365 
3 317 365 345 
3 344 319 346 
3 379 376 320 
3 278 376 314 
3 379 320 347 
3 380 347 321 
3 345 380 335 
3 349 350 284 
3 351 323 350 
3 351 352 324 
3 352 366 325 
3 367 336 353 
3 366 353 325 
3 367 354 336 
3 326 354 368 
3 416 327 355 
3 355 326 368 
3 416 356 327 
3 381 348 338 
3 346 330 371 
3 357 339 372 
3 341 373 405 
3 340 374 404 
3 371 341 406 
3 342 361 358 
3 359 389 295 
3 359 295 360 
3 296 389 421 
3 387 333 358 
3 387 390 332 
3 361 342 363 
3 342 337 363 
3 386 334 364 
3 376 343 314 
3 378 393 313 
3 344 371 365 
3 345 365 394 
3 344 346 371 
3 349 348 382 
3 349 382 350 
3 351 350 412 
3 351 395 352 
3 383 366 352 
3 366 445 353 
3 367 384 354 
3 368 354 415 
3 355 368 385 
3 401 338 370 
3 381 338 401 
3 334 386 339 
3 340 404 373 
3 341 405 406 
3 371 406 365 
3 387 358 361 
3 359 388 389 
3 375 420 360 
3 391 364 362 
3 356 392 337 
3 386 364 391 
3 376 377 343 
3 365 406 394 
3 347 409 379 
3 380 409 347 
3 345 394 380 
3 382 348 381 
3 412 350 382 
3 351 412 395 
3 383 352 395 
3 383 396 366 
3 367 353 397 
3 398 445 366 
3 367 397 384 
3 354 384 415 
3 449 368 415 
3 428 416 355 
3 449 385 368 
3 428 355 385 
3 416 399 356 
3 400 370 369 
3 339 386 372 
3 357 372 419 
3 357 407 374 
3 359 360 388 
3 375 408 420 
3 299 421 362 
3 375 390 408 
3 337 392 363 
3 356 399 392 
3 376 435 377 
3 378 377 436 
3 424 369 393 
3 376 379 435 
3 411 380 394 
3 402 382 381 
3 413 396 383 
3 396 398 366 
3 353 414 397 
3 444 445 398 
3 397 447 384 
3 449 417 385 
3 428 385 418 
3 424 400 369 
3 401 370 400 
3 381 401 402 
3 386 391 403 
3 372 386 403 
3 419 372 403 
3 373 404 405 
3 407 404 374 
3 357 419 407 
3 387 361 390 
3 450 388 360 
3 421 389 471 
3 391 362 422 
3 361 363 390 
3 423 363 392 
3 377 435 436 
3 378 424 393 
3 406 425 394 
3 409 435 379 
3 410 409 380 
3 410 380 411 
3 425 411 394 
3 402 439 382 
3 439 412 382 
3 426 395 412 
3 426 441 395 
3 395 441 383 
3 413 454 396 
3 417 398 396 
3 353 445 414 
3 414 427 397 
3 444 398 446 
3 427 447 397 
3 447 415 384 
3 428 399 416 
3 449 446 417 
3 417 418 385 
3 429 400 424 
3 401 400 429 
3 391 422 403 
3 419 403 461 
3 404 425 405 
3 406 405 425 
3 407 419 433 
3 450 360 420 
3 471 389 388 
3 420 408 434 
3 421 422 362 
3 408 390 434 
3 423 390 363 
3 423 392 399 
3 378 436 424 
3 437 409 410 
3 438 411 425 
3 402 465 439 
3 426 412 440 
3 413 383 442 
3 413 486 454 
3 454 443 396 
3 417 446 398 
3 417 396 418 
3 448 415 447 
3 428 418 443 
3 401 429 430 
3 401 430 402 
3 460 465 402 
3 461 403 422 
3 419 461 431 
3 432 404 407 
3 404 432 425 
3 419 431 433 
3 450 470 388 
3 471 451 421 
3 451 422 421 
3 423 434 390 
3 436 457 424 
3 429 424 457 
3 437 435 409 
3 410 411 437 
3 439 431 412 
3 412 431 440 
3 426 452 441 
3 442 383 441 
3 413 442 453 
3 413 453 486 
3 396 443 418 
3 448 449 415 
3 455 399 428 
3 428 443 456 
3 430 429 458 
3 402 430 459 
3 460 402 459 
3 431 461 440 
3 432 438 425 
3 388 470 471 
3 420 472 450 
3 420 434 472 
3 423 399 455 
3 436 435 475 
3 436 475 457 
3 437 462 435 
3 463 437 411 
3 438 464 411 
3 439 465 431 
3 440 452 426 
3 473 442 441 
3 453 442 466 
3 495 486 453 
3 467 427 414 
3 448 447 468 
3 448 469 449 
3 455 428 456 
3 429 457 458 
3 430 458 459 
3 433 432 407 
3 431 465 433 
3 471 473 451 
3 434 474 472 
3 451 452 422 
3 423 455 474 
3 435 462 475 
3 437 463 462 
3 463 411 464 
3 476 442 473 
3 476 466 442 
3 453 466 494 
3 495 453 494 
3 500 454 486 
3 492 443 454 
3 477 456 443 
3 467 414 445 
3 467 478 427 
3 478 447 427 
3 448 468 469 
3 449 469 446 
3 479 455 456 
3 480 458 457 
3 459 458 481 
3 482 460 459 
3 465 460 433 
3 461 422 452 
3 482 432 433 
3 483 438 432 
3 470 450 472 
3 452 451 473 
3 423 474 434 
3 480 457 475 
3 484 462 463 
3 484 463 464 
3 483 464 438 
3 440 461 452 
3 452 473 441 
3 476 473 471 
3 476 485 466 
3 491 494 466 
3 500 492 454 
3 477 443 492 
3 477 491 456 
3 497 444 446 
3 467 445 487 
3 467 488 478 
3 489 447 478 
3 468 447 499 
3 468 490 469 
3 497 446 469 
3 479 474 455 
3 479 456 491 
3 480 481 458 
3 482 459 481 
3 482 433 460 
3 482 483 432 
3 470 476 471 
3 470 472 485 
3 462 480 475 
3 484 480 462 
3 484 464 483 
3 470 485 476 
3 479 466 485 
3 479 491 466 
3 477 492 509 
3 477 493 491 
3 444 487 445 
3 488 467 487 
3 488 489 478 
3 489 499 447 
3 468 499 490 
3 497 469 490 
3 479 485 474 
3 484 481 480 
3 482 481 483 
3 474 485 472 
3 484 483 481 
3 496 494 491 
3 500 486 505 
3 477 509 493 
3 444 498 487 
3 488 507 489 
3 496 491 493 
3 505 486 495 
3 509 501 493 
3 497 498 444 
3 488 487 502 
3 488 502 507 
3 489 507 499 
3 496 493 501 
3 496 503 494 
3 504 495 494 
3 511 505 495 
3 506 502 487 
3 490 499 508 
3 496 501 503 
3 503 504 494 
3 511 495 504 
3 510 492 500 
3 514 500 505 
3 498 506 487 
3 507 502 506 
3 507 508 499 
3 497 490 508 
3 511 504 515 
3 509 492 510 
3 510 500 514 
3 517 514 505 
3 497 508 498 
3 498 508 506 
3 507 506 508 
3 504 503 515 
3 511 517 505 
3 509 512 501 
3 509 510 513 
3 510 514 518 
3 512 503 501 
3 515 503 520 
3 516 517 511 
3 509 513 512 
3 510 518 513 
3 512 520 503 
3 516 511 515 
3 519 514 517 
3 516 515 521 
3 517 516 521 
3 519 518 514 
3 519 517 521 
3 515 520 521 
3 513 522 512 
3 513 518 522 
3 519 523 518 
3 520 512 522 
3 523 522 518 
3 519 521 523 
3 520 522 521 
3 523 521 522 
