ply
format ascii 1.0
comment VCGLIB generated
element vertex 263
property float x
property float y
property float z
element face 522
property list uchar int vertex_indices
end_header
0.2503997 -0.7211775 0.7232892 
0.002046664 -0.6821417 0.6704015 
-0.02884903 -0.7367172 0.6204481 
-0.07628413 -0.3725934 0.7423598 
0.064524 -0.8225594 0.6499878 
0.364266 -0.4763624 0.7258097 
0.1743492 -0.9570085 0.6247234 
0.09936529 -0.401185 0.7745507 
-0.1401077 -0.8668927 0.7112619 
0.4292243 -0.9632615 0.5538149 
0.473881 -0.5015612 0.6543405 
-0.1076295 -0.9308571 0.7212303 
0.26435 -0.957214 0.501535 
-0.09688507 -0.9666354 0.6247838 
0.09641762 -0.1860485 0.7285635 
0.3089585 -0.2125706 0.7114298 
-0.1876376 -0.3213045 0.5695997 
-0.1445196 -0.6838063 0.4925476 
0.402894 -0.8512256 0.5912603 
0.4876207 -0.6879172 0.6207182 
0.5213776 -0.3635592 0.6533026 
-0.2882858 -0.9621555 0.5748367 
-0.328023 -0.5208582 0.5641776 
0.277534 -0.91106 0.382096 
0.02970251 -0.9095432 0.5090573 
-0.0623783 -0.2156285 0.6929399 
-0.2977079 -0.9736536 0.4712546 
0.628893 -0.8049759 0.4360109 
0.1826979 -0.919334 0.310837 
0.4088584 -0.961315 0.3931213 
-0.1589827 -0.9222541 0.4419815 
0.1884958 -0.1040801 0.5966041 
-0.117971 -0.2121088 0.6106523 
-0.3326499 -0.1693497 0.5700305 
0.6883802 -0.6166462 0.491825 
0.3889721 -0.1180097 0.6235783 
-0.4535941 -0.7529498 0.4180412 
-0.4594467 -0.7839208 0.5183939 
-0.2842237 -0.8261576 0.5381662 
-0.4578622 -0.645431 0.3922814 
0.7616599 -0.543847 0.3877054 
0.2461968 -0.966724 0.2807718 
0.1860321 0.04282511 0.5597355 
-0.2379436 -0.1251753 0.5666209 
-0.4288916 -0.3576793 0.5953863 
0.5836564 -0.9124167 0.378861 
0.7392935 -0.7904558 0.4424106 
0.5356216 -0.1512637 0.5949593 
-0.488663 -0.866847 0.610986 
-0.08363021 -0.9323519 0.1843951 
0.1666009 -0.9160529 0.03034673 
0.259663 -0.9771062 0.06515443 
0.6287449 -0.9670165 0.1295409 
0.6896234 -0.2371149 0.5007194 
0.5820961 0.09973317 0.4059625 
0.4080023 0.08114894 0.4911178 
-0.6244857 -0.8579934 0.4782611 
0.9141842 -0.5514044 0.3516673 
0.7872211 -0.2288273 0.3132915 
-0.3927064 -0.05133972 0.5406513 
-0.5806071 -0.1751359 0.5859683 
-0.6773765 -0.2875763 0.5815662 
-0.66161 -0.4948209 0.5006226 
0.8122327 -0.8552688 0.3333756 
0.8856251 -0.6659122 0.4114147 
-0.43814 -0.801949 0.272324 
-0.6472741 -0.6293325 0.2518007 
1.004902 -0.5984047 0.2475354 
-0.2084233 -0.959493 0.260024 
0.3526545 0.2313802 0.3907225 
0.07769282 0.1408406 0.4820172 
-0.2080274 0.1203474 0.4075347 
-0.4203596 0.06571575 0.4524116 
-0.4560807 -0.7218633 0.1805303 
-0.5592205 -0.9681208 0.5868487 
-0.8098391 -0.3371025 0.4619597 
0.762448 -0.9120963 0.1678891 
0.9555544 -0.757661 0.2473157 
0.8181959 -0.4717318 0.2645179 
0.2027117 -0.9170915 -0.1560869 
0.5751138 0.1629371 0.2279923 
-0.5466511 -0.9036352 0.2705833 
-0.648502 -0.9372144 0.4187693 
-0.5463916 -0.6689706 0.1062209 
0.9505962 -0.4758318 0.1951815 
0.9669465 -0.5535578 0.06397532 
-0.2938896 -0.9794696 0.05122211 
-0.5729499 -0.9886746 0.04184136 
0.4661289 -0.9688522 -0.01768563 
0.4202749 -0.9716334 -0.1524473 
0.1620625 0.249067 0.3466869 
-0.1433377 0.1725629 0.3018927 
-0.3412156 0.1820506 0.3150432 
-0.7893167 -0.03768753 0.453909 
-0.6329128 -0.005698103 0.5098177 
-0.5335712 -0.7613238 0.04440055 
-0.7639143 -0.5543961 0.1952327 
-0.5925226 -0.9758904 0.2684169 
0.909556 -0.6217207 -0.0212044 
-0.2545446 -0.922316 -0.09694425 
0.2974013 -0.9816584 -0.2151739 
0.3593955 -0.9293264 -0.2802073 
-0.4302244 0.2420934 0.4349551 
-0.9160352 -0.1896447 0.349677 
-0.5547377 0.1605102 0.5615025 
-0.8186416 -0.4251916 0.398679 
0.8296884 -0.8404015 0.02602394 
0.9544623 -0.7534842 0.09608798 
0.832163 -0.494574 0.08827119 
0.7142624 -0.02096432 0.3116902 
-0.6726021 -0.6125625 0.05303849 
-0.4805765 -0.6209875 -0.0875846 
0.8065627 -0.432236 0.04936748 
0.0799706 -0.926874 -0.316656 
-0.3938221 -0.9834073 -0.1597973 
0.5322464 -0.8140889 -0.2200468 
0.6416343 -0.7536262 -0.08761227 
0.4791532 -0.7632708 -0.3070319 
0.8161593 -0.7575883 -0.05523181 
0.7866198 -0.1343437 0.1019327 
-0.05070444 0.2216833 0.2208466 
0.3139516 0.2809236 0.1821377 
-0.2510557 0.2118383 0.2222281 
-0.474451 0.3665621 0.383862 
-0.9452205 0.03897521 0.5556514 
-0.6335286 0.1440334 0.6823705 
-0.9196096 -0.3291891 0.1960483 
0.1719387 -0.853214 -0.3193033 
-0.607401 0.3435972 0.5169116 
0.4119361 0.2452442 0.06825105 
-0.6844541 -0.8545667 0.07882959 
-0.710159 -0.967844 0.0302809 
-0.7555151 0.05172125 0.6713297 
0.7553304 -0.2774439 -0.1027459 
-0.1730752 -0.9889241 -0.3042397 
-0.3293491 -0.9784998 -0.3353505 
0.7061521 -0.5875446 -0.1318409 
0.7398131 -0.6256914 -0.03490122 
0.263693 -0.7122616 -0.3863903 
0.1753659 0.2636907 0.05082339 
-0.3852635 0.2997378 0.2285007 
-0.6622654 -0.9667107 -0.06907348 
-0.3697533 -0.8162215 -0.120304 
-0.7412956 0.2285336 0.7146044 
-0.9611927 0.09138273 0.3643155 
-0.89115 -0.02343058 0.2674554 
-0.936605 -0.1496047 0.1858253 
-0.4286469 0.4480736 0.1597354 
-0.8111584 -0.4778309 0.00481153 
-0.3953583 -0.6674322 -0.1254593 
0.6731272 -0.3274507 -0.2061208 
0.672254 -0.07236656 -0.1115259 
0.6056123 0.07634585 -0.04807172 
-0.204342 -0.9330137 -0.3742263 
-0.3140962 -0.8562289 -0.2963028 
-0.4234186 0.3875271 0.05966008 
-0.4825924 0.568476 0.2187353 
-0.5125995 0.5451714 0.4255867 
-0.9711763 0.1472957 0.5783741 
-0.8730148 -0.3073139 -0.03999556 
0.09552977 -0.766929 -0.3921773 
0.1150193 0.1947656 -0.0766627 
-0.3834804 -0.3924196 -0.2417286 
-0.1985169 -0.7374681 -0.1225279 
-0.7271399 0.3957787 0.6338429 
0.5954302 -0.4271902 -0.2654062 
-0.1187171 -0.7647808 -0.3194796 
-0.05660509 -0.8289628 -0.340273 
-0.1422679 0.1949622 0.05544641 
-0.3832158 0.2613423 0.03626673 
-0.3408407 0.47187 0.02945106 
-0.3445032 0.6099308 0.09385974 
-0.5238566 -0.4250393 -0.2397949 
-0.894901 0.3270167 0.6126871 
-1.005331 0.1632297 0.2830643 
-0.8049662 0.4925008 0.5384461 
-0.441118 0.460303 0.000389771 
-0.5049357 0.61265 0.1333655 
0.3267496 0.1516136 -0.1611169 
-0.6500537 -0.4371949 -0.2002548 
-0.2448215 -0.4517098 -0.2258194 
-0.9734762 0.2003992 0.4138477 
0.4863972 -0.5943821 -0.3329765 
-0.03921087 -0.5204454 -0.4812233 
-0.180344 0.1363649 -0.09576321 
-0.9583061 0.2089579 0.09514934 
-0.9582992 0.0476104 0.1518419 
-0.9225962 0.4065187 0.4514617 
-0.8248363 0.583652 0.3034066 
0.5547262 -0.136574 -0.224801 
-0.4493513 0.2083474 -0.05669285 
-0.5312176 0.5034265 0.01276613 
-0.208413 0.599805 0.0493931 
0.2598864 0.1161539 -0.1749718 
0.08263467 0.0503324 -0.2253553 
-0.7856098 -0.2301536 -0.1482456 
-0.9498021 0.3537822 0.2533368 
-0.3622842 0.1743281 -0.1193717 
-0.5895017 0.4064837 -0.06323648 
-0.2593304 0.7657263 0.02850497 
-0.6362391 0.5951357 0.3430854 
-0.5634596 0.5597988 0.04885178 
-0.4629696 -0.1085506 -0.2594445 
-0.8708767 -0.00590669 0.05409984 
-0.9638852 0.5166975 0.2601643 
0.2978547 0.03205903 -0.2265238 
-0.213792 -0.3095292 -0.308098 
-0.325066 -0.2273867 -0.2751287 
0.4682596 -0.2757406 -0.3294732 
0.1692764 -0.3724442 -0.4649405 
-0.2151075 0.02706255 -0.2144555 
-0.5682132 0.1339516 -0.1041393 
-0.6295297 0.5644006 -0.01973325 
-0.2905496 0.6884468 -0.144646 
-0.2111393 0.6234855 -0.1437034 
-0.3665454 0.7404183 -0.07629094 
-0.06594686 0.7606074 -0.1453916 
-0.3117496 0.8067389 -0.01477284 
-0.7298838 0.04548358 -0.07969867 
-0.6806789 0.3998994 -0.07878822 
-0.5874296 0.5191403 -0.09103635 
-0.8368827 0.5400962 0.06135866 
0.2151775 -0.1154784 -0.2784406 
-0.05977022 -0.1019845 -0.2916585 
-0.5158941 0.005924528 -0.2053168 
0.06075592 -0.2789813 -0.4761917 
-0.1702662 -0.3701703 -0.4425961 
-0.09095406 0.6130698 -0.1203775 
-0.8884043 0.1750026 -0.01785951 
-0.8913565 0.4111221 0.1065598 
-0.750145 0.20953 -0.08581941 
0.2885359 -0.1985114 -0.3753573 
-0.7503961 0.4373062 -0.05841737 
-0.7058637 0.5799586 0.04653344 
-0.00199433 0.6578053 -0.0850117 
0.03837867 -0.1988368 -0.4204639 
-0.1047902 -0.204114 -0.3688917 
-0.5937683 0.5035925 -0.2820314 
-0.03898052 0.7764073 -0.2533516 
-0.1247016 0.92112 -0.09742653 
-0.7743258 0.5308143 -0.02592198 
-0.6192322 0.7039537 -0.2859847 
-0.7427029 0.5212807 -0.3445626 
-0.6747603 0.4876392 -0.4066046 
-0.1075455 0.9056448 -0.207931 
-0.04303199 0.8819687 -0.2780883 
-0.5720908 0.6290056 -0.3327854 
-0.7914285 0.6733054 -0.2815982 
-0.7362383 0.6174731 -0.3595786 
-0.6778087 0.526989 -0.5566972 
-0.601916 0.5969786 -0.5225819 
0.0688475 0.898887 -0.360034 
0.0931619 0.7666994 -0.2859052 
-0.00184027 0.9892752 -0.2580992 
-0.7091803 0.7605468 -0.313355 
-0.633761 0.771801 -0.478279 
-0.7994253 0.805639 -0.5458024 
-0.7175312 0.8614903 -0.56816 
-0.5822198 0.8024063 -0.7468892 
-0.7019137 0.7589175 -0.6057455 
-0.6025019 0.6742506 -0.7429612 
-0.6921142 0.8989727 -0.7056956 
-0.6282279 0.8957625 -0.7394694 
3 1 0 7 
3 0 1 4 
3 7 0 5 
3 4 1 2 
3 1 16 2 
3 18 0 4 
3 8 4 2 
3 17 2 16 
3 7 3 1 
3 0 10 5 
3 18 4 6 
3 8 11 4 
3 0 19 10 
3 9 18 6 
3 11 6 4 
3 7 5 15 
3 3 16 1 
3 18 19 0 
3 9 6 12 
3 11 13 6 
3 3 7 14 
3 12 6 13 
3 9 12 29 
3 20 5 10 
3 7 15 14 
3 3 14 25 
3 3 25 16 
3 8 2 38 
3 11 21 13 
3 12 13 24 
3 12 23 29 
3 20 15 5 
3 34 10 19 
3 16 25 32 
3 2 17 38 
3 11 8 21 
3 13 21 26 
3 17 16 22 
3 19 18 27 
3 12 24 23 
3 22 38 17 
3 18 9 27 
3 34 19 27 
3 28 23 24 
3 30 24 13 
3 13 26 30 
3 20 10 34 
3 20 35 15 
3 31 14 15 
3 25 14 31 
3 16 32 43 
3 15 35 31 
3 8 38 21 
3 22 16 33 
3 27 9 45 
3 9 29 45 
3 30 28 24 
3 41 23 28 
3 41 29 23 
3 20 47 35 
3 25 31 32 
3 33 16 43 
3 44 22 33 
3 39 22 44 
3 34 27 40 
3 31 43 32 
3 31 35 55 
3 36 37 38 
3 36 38 22 
3 39 44 62 
3 27 46 40 
3 52 45 29 
3 28 30 49 
3 53 20 34 
3 53 34 40 
3 47 54 35 
3 31 42 43 
3 42 31 55 
3 36 22 39 
3 38 37 48 
3 44 61 62 
3 27 45 46 
3 46 64 40 
3 57 40 64 
3 28 50 41 
3 51 41 50 
3 26 68 30 
3 47 20 53 
3 35 54 55 
3 38 48 21 
3 44 33 60 
3 63 46 45 
3 28 49 50 
3 49 30 68 
3 51 29 41 
3 48 37 56 
3 21 48 74 
3 21 74 26 
3 60 33 59 
3 61 44 60 
3 52 63 45 
3 63 64 46 
3 57 78 40 
3 51 88 29 
3 47 53 54 
3 40 58 53 
3 43 42 70 
3 55 69 42 
3 43 71 33 
3 36 56 37 
3 48 56 74 
3 52 76 63 
3 40 78 58 
3 64 67 57 
3 50 89 51 
3 52 29 88 
3 70 42 69 
3 59 33 71 
3 69 55 54 
3 65 36 39 
3 62 66 39 
3 57 84 78 
3 49 68 86 
3 65 39 73 
3 39 66 73 
3 74 56 82 
3 94 60 59 
3 64 63 77 
3 64 77 67 
3 67 84 57 
3 50 79 89 
3 49 86 99 
3 88 51 89 
3 109 53 58 
3 54 53 109 
3 71 43 70 
3 59 71 72 
3 69 54 80 
3 65 81 36 
3 65 73 95 
3 56 36 81 
3 83 73 66 
3 74 97 26 
3 94 59 72 
3 75 62 61 
3 62 75 105 
3 77 63 76 
3 68 26 87 
3 52 106 76 
3 79 100 89 
3 69 90 70 
3 71 70 91 
3 71 92 72 
3 65 95 81 
3 56 81 82 
3 66 62 105 
3 74 82 97 
3 93 61 60 
3 77 76 107 
3 107 67 77 
3 112 78 108 
3 67 85 84 
3 84 108 78 
3 85 67 107 
3 49 99 50 
3 50 99 79 
3 68 87 86 
3 88 106 52 
3 91 70 90 
3 92 102 72 
3 69 80 121 
3 130 81 95 
3 81 97 82 
3 66 105 96 
3 83 66 110 
3 94 93 60 
3 93 103 61 
3 104 94 72 
3 61 103 75 
3 72 102 104 
3 107 76 106 
3 78 119 58 
3 84 85 108 
3 85 107 98 
3 118 106 88 
3 88 89 115 
3 101 89 100 
3 120 91 90 
3 90 69 121 
3 129 121 80 
3 66 96 110 
3 73 83 95 
3 26 97 87 
3 105 75 103 
3 78 112 119 
3 109 58 119 
3 118 88 116 
3 101 115 89 
3 54 109 80 
3 90 121 120 
3 71 91 92 
3 111 95 83 
3 130 97 81 
3 93 94 132 
3 133 119 112 
3 85 98 108 
3 134 100 79 
3 100 113 101 
3 99 86 114 
3 88 115 116 
3 101 117 115 
3 120 122 91 
3 91 122 92 
3 140 102 92 
3 130 95 142 
3 110 111 83 
3 111 142 95 
3 94 104 125 
3 124 93 132 
3 128 104 102 
3 105 103 126 
3 105 126 96 
3 112 108 137 
3 137 108 98 
3 118 98 107 
3 79 99 134 
3 134 113 100 
3 99 114 134 
3 113 127 101 
3 86 87 114 
3 106 118 107 
3 127 117 101 
3 119 80 109 
3 140 92 122 
3 102 140 123 
3 102 123 128 
3 129 80 152 
3 141 130 142 
3 110 96 148 
3 111 149 142 
3 131 87 97 
3 94 125 132 
3 128 125 104 
3 96 126 148 
3 112 137 136 
3 134 153 113 
3 113 167 127 
3 136 116 115 
3 118 116 137 
3 138 117 127 
3 152 80 119 
3 120 121 139 
3 120 168 122 
3 140 122 169 
3 140 147 123 
3 157 128 123 
3 139 121 129 
3 131 97 130 
3 131 141 87 
3 143 132 125 
3 103 93 145 
3 128 143 125 
3 103 146 126 
3 112 136 150 
3 150 133 112 
3 119 133 151 
3 152 119 151 
3 153 167 113 
3 134 114 135 
3 127 167 160 
3 87 141 114 
3 115 117 136 
3 116 136 137 
3 118 137 98 
3 138 127 160 
3 120 139 168 
3 122 168 169 
3 157 123 147 
3 164 128 157 
3 139 129 178 
3 110 179 111 
3 163 142 149 
3 131 130 141 
3 124 144 93 
3 144 145 93 
3 128 164 143 
3 134 135 153 
3 135 114 154 
3 182 136 117 
3 117 138 182 
3 147 140 155 
3 178 129 152 
3 139 178 161 
3 114 141 142 
3 148 179 110 
3 179 172 111 
3 124 132 158 
3 126 159 148 
3 136 165 150 
3 135 154 153 
3 114 142 154 
3 169 155 140 
3 156 157 147 
3 157 175 164 
3 148 159 179 
3 149 180 163 
3 162 149 111 
3 172 162 111 
3 144 124 181 
3 145 146 103 
3 124 158 181 
3 143 158 132 
3 126 146 159 
3 153 166 167 
3 153 154 166 
3 136 182 165 
3 168 139 161 
3 170 147 155 
3 156 147 171 
3 157 200 175 
3 178 193 161 
3 154 142 163 
3 162 180 149 
3 164 173 143 
3 144 181 174 
3 145 144 186 
3 145 203 146 
3 158 187 181 
3 143 173 158 
3 146 203 159 
3 189 133 150 
3 189 151 133 
3 152 151 189 
3 152 189 178 
3 183 138 160 
3 167 183 160 
3 176 170 155 
3 156 171 177 
3 200 157 156 
3 174 186 144 
3 145 186 203 
3 173 187 158 
3 173 164 175 
3 166 154 163 
3 168 161 184 
3 168 184 169 
3 169 190 155 
3 198 176 155 
3 176 214 170 
3 177 171 199 
3 194 161 193 
3 159 195 179 
3 174 185 186 
3 181 196 174 
3 195 159 203 
3 200 188 175 
3 138 209 182 
3 183 209 138 
3 167 166 183 
3 184 161 194 
3 197 169 184 
3 169 197 190 
3 198 155 190 
3 198 191 176 
3 147 170 192 
3 191 214 176 
3 147 192 171 
3 217 177 199 
3 233 200 156 
3 233 156 177 
3 205 193 178 
3 172 179 202 
3 172 207 162 
3 181 187 196 
3 165 208 150 
3 189 150 208 
3 205 178 189 
3 165 182 208 
3 170 227 192 
3 213 214 191 
3 192 216 171 
3 217 201 177 
3 233 177 201 
3 202 179 195 
3 207 180 162 
3 172 202 207 
3 203 186 228 
3 173 175 187 
3 204 175 188 
3 163 226 166 
3 209 208 182 
3 226 183 166 
3 194 210 184 
3 210 197 184 
3 211 190 197 
3 190 211 198 
3 198 220 191 
3 170 214 227 
3 227 234 192 
3 213 191 215 
3 234 216 192 
3 216 199 171 
3 233 188 200 
3 217 215 201 
3 193 205 222 
3 202 195 224 
3 163 180 226 
3 185 174 196 
3 228 186 185 
3 196 187 204 
3 204 187 175 
3 189 208 205 
3 211 197 224 
3 198 237 220 
3 220 212 191 
3 201 215 191 
3 233 201 212 
3 193 222 194 
3 223 210 194 
3 206 180 207 
3 180 206 226 
3 228 218 203 
3 218 195 203 
3 208 222 205 
3 210 202 197 
3 197 202 224 
3 219 198 211 
3 198 219 237 
3 191 212 201 
3 221 188 233 
3 196 229 185 
3 196 204 229 
3 204 188 221 
3 208 231 222 
3 209 225 208 
3 225 209 183 
3 224 218 211 
3 230 219 211 
3 243 237 219 
3 194 222 223 
3 202 210 207 
3 228 230 218 
3 204 221 229 
3 208 225 231 
3 225 183 226 
3 232 219 230 
3 219 232 242 
3 243 219 242 
3 246 220 237 
3 241 212 220 
3 199 216 217 
3 240 221 233 
3 223 222 236 
3 210 223 207 
3 224 195 218 
3 223 206 207 
3 236 226 206 
3 228 185 229 
3 235 222 231 
3 235 225 226 
3 218 230 211 
3 232 230 228 
3 240 242 232 
3 246 241 220 
3 233 212 241 
3 244 213 215 
3 227 214 238 
3 227 252 234 
3 216 239 217 
3 244 215 217 
3 235 236 222 
3 223 236 206 
3 228 229 240 
3 225 235 231 
3 235 226 236 
3 228 240 232 
3 233 241 254 
3 233 247 240 
3 213 238 214 
3 252 227 238 
3 252 216 234 
3 216 252 239 
3 244 217 239 
3 221 240 229 
3 248 242 240 
3 246 237 250 
3 233 254 247 
3 213 245 238 
3 248 240 247 
3 250 237 243 
3 244 245 213 
3 249 243 242 
3 249 250 243 
3 251 252 238 
3 239 252 253 
3 248 249 242 
3 255 241 246 
3 258 246 250 
3 245 251 238 
3 244 239 253 
3 254 241 255 
3 255 246 258 
3 260 258 250 
3 244 253 245 
3 245 253 251 
3 252 251 253 
3 249 248 259 
3 249 260 250 
3 254 256 247 
3 254 255 257 
3 255 258 262 
3 256 248 247 
3 254 257 256 
3 255 262 257 
3 256 259 248 
3 260 249 259 
3 260 259 261 
3 258 260 261 
3 257 261 256 
3 257 262 261 
3 259 256 261 
3 258 261 262 
